<svg width="24" height="16" viewBox="0 0 24 16" fill="none" xmlns="http://www.w3.org/2000/svg">
<path d="M17.0048 4.07354L18.4105 5.90687C18.5714 6.11278 18.7141 6.28217 18.7718 6.37848C19.1922 6.84224 19.4279 7.46901 19.4276 8.12214C19.3881 8.89268 18.9357 9.41743 18.5168 9.97872L17.5331 11.2607L17.02 11.925C17.0016 11.9479 16.9897 11.9762 16.9858 12.0064C16.982 12.0366 16.9863 12.0674 16.9983 12.0949C17.0102 12.1225 17.0293 12.1456 17.0531 12.1615C17.0769 12.1773 17.1045 12.1851 17.1323 12.184H22.2602C23.0435 12.184 24.0302 12.9147 23.9725 14.024C23.9709 14.5282 23.7871 15.0113 23.4612 15.3677C23.1353 15.7243 22.6938 15.9253 22.2329 15.9271H14.2026C13.6743 15.9271 12.2534 15.9902 11.8557 14.6451C11.7711 14.364 11.7596 14.0628 11.8223 13.7749C11.9379 13.3493 12.1208 12.9491 12.3627 12.5925C12.7665 11.9283 13.2037 11.264 13.6348 10.6197C14.1904 9.77611 14.7612 8.9591 15.3229 8.09888C15.3428 8.07088 15.3536 8.0364 15.3536 8.00091C15.3536 7.96543 15.3428 7.93095 15.3229 7.90295L13.2826 5.24593C13.2693 5.22668 13.2521 5.21105 13.2324 5.2003C13.2126 5.18955 13.1909 5.18395 13.1688 5.18395C13.1467 5.18395 13.125 5.18955 13.1052 5.2003C13.0855 5.21105 13.0682 5.22668 13.0549 5.24593C12.5085 6.053 10.1161 9.62668 9.60601 10.3507C9.09595 11.0747 7.83904 11.1146 7.14378 10.3507L3.95291 6.84679C3.93254 6.82441 3.90652 6.80915 3.87823 6.80298C3.8499 6.79678 3.82054 6.79995 3.79389 6.81205C3.7672 6.82414 3.7444 6.84463 3.7284 6.87092C3.7124 6.89721 3.7039 6.92811 3.70396 6.95969V13.6985C3.71146 14.1768 3.58203 14.6455 3.33375 15.0392C3.08549 15.4329 2.73085 15.7317 2.31953 15.8939C2.0567 15.9939 1.77584 16.0238 1.50029 15.981C1.22477 15.9382 0.962605 15.824 0.735631 15.6478C0.508657 15.4717 0.323459 15.2387 0.19549 14.9684C0.0675517 14.6981 0.000516126 14.3982 0 14.0937V1.97781C0.0183073 1.54118 0.161912 1.12197 0.410441 0.77974C0.658971 0.437506 0.999766 0.189669 1.38443 0.0714125C1.71439 -0.0247431 2.06171 -0.0237793 2.39121 0.0742096C2.72071 0.172178 3.02067 0.363735 3.2607 0.6294L8.16693 6.00319C8.18162 6.0195 8.19938 6.0321 8.21903 6.04006C8.23864 6.04801 8.25965 6.05118 8.28051 6.04926C8.30136 6.04737 8.32158 6.04046 8.33974 6.02907C8.35789 6.01765 8.3735 6.00201 8.38552 5.98324L11.8709 0.705766C12.0319 0.491529 12.2339 0.318407 12.4626 0.198499C12.6912 0.0785908 12.9411 0.0148287 13.1946 0.0116271H22.2602C22.5083 0.0120989 22.7535 0.0704689 22.9792 0.182895C23.2051 0.295355 23.4063 0.459243 23.5696 0.663606C23.7328 0.867969 23.8543 1.10812 23.9259 1.36799C23.9975 1.62786 24.0175 1.90144 23.9847 2.17044C23.9208 2.6371 23.7043 3.06261 23.3755 3.36797C23.0466 3.67334 22.6277 3.8379 22.1964 3.83109H17.1202C17.0947 3.83177 17.0698 3.83992 17.0481 3.85468C17.0265 3.86945 17.0089 3.89031 16.9971 3.91504C16.9853 3.93981 16.9798 3.96758 16.9812 3.99545C16.9825 4.02332 16.9907 4.05028 17.0048 4.07354Z" fill="#6A707F"/>
</svg>
