<svg width="20" height="18" viewBox="0 0 20 18" fill="none" xmlns="http://www.w3.org/2000/svg">
<path d="M1.19001 10.2783L1.25999 10.1683L5.48 3.56664C5.54168 3.46999 5.68667 3.47999 5.73333 3.58498C6.43834 5.16497 7.04667 7.12998 6.76168 8.35332C6.64001 8.85666 6.30668 9.53831 5.93166 10.1683C5.88335 10.26 5.83001 10.35 5.77333 10.4367C5.74666 10.4767 5.70166 10.5 5.65332 10.5H1.31333C1.19666 10.5 1.12834 10.3733 1.19001 10.2783Z" fill="#6A7080"/>
<path d="M20 11.505V12.55C20 12.61 19.9633 12.6633 19.91 12.6867C19.5834 12.8267 18.465 13.34 18 13.9867C16.8133 15.6383 15.9067 18 13.88 18H5.42499C2.42835 18 0 15.5633 0 12.5567V12.46C0 12.38 0.0649854 12.315 0.144993 12.315H4.85835C4.95166 12.315 5.01999 12.4017 5.01168 12.4933C4.97833 12.8 5.03501 13.1133 5.18 13.3983C5.45999 13.9667 6.04 14.3217 6.66666 14.3217H9.00001V12.5H6.69332C6.575 12.5 6.50502 12.3633 6.57335 12.2667C6.59833 12.2283 6.62668 12.1883 6.65666 12.1433C6.87501 11.8333 7.18667 11.3517 7.49667 10.8033C7.70834 10.4333 7.91332 10.0383 8.07833 9.64168C8.11169 9.57001 8.13832 9.49665 8.16499 9.42498C8.20999 9.29832 8.25668 9.18 8.29 9.06168C8.32335 8.96165 8.34999 8.85666 8.37666 8.75832C8.45501 8.42165 8.48833 8.06499 8.48833 7.695C8.48833 7.55001 8.48168 7.39833 8.46834 7.25334C8.46166 7.09501 8.44168 6.93665 8.42166 6.77832C8.40832 6.63833 8.38334 6.49999 8.35667 6.35499C8.32335 6.14333 8.27666 5.93335 8.22333 5.72165L8.205 5.64168C8.16499 5.49665 8.13167 5.35834 8.08502 5.21335C7.95333 4.75832 7.80168 4.315 7.64167 3.90001C7.58333 3.735 7.51666 3.57667 7.44999 3.41835C7.35168 3.18001 7.25166 2.96335 7.16 2.75833C7.11335 2.66499 7.07334 2.57999 7.03334 2.49333C6.98834 2.39499 6.94168 2.29665 6.895 2.20335C6.86168 2.13168 6.82333 2.065 6.79666 1.99833L6.51167 1.47167C6.47167 1.4 6.53834 1.31499 6.61666 1.33667L8.40002 1.81999H8.40501C8.40832 1.81999 8.41001 1.82167 8.41166 1.82167L8.64666 1.88666L8.90501 1.96001L9.00001 1.98665V0.926669C9.00001 0.414993 9.41 0 9.91668 0C10.17 0 10.4 0.103334 10.565 0.271654C10.73 0.440007 10.8333 0.670003 10.8333 0.926669V2.50001L11.0234 2.55332C11.0383 2.55835 11.0533 2.565 11.0667 2.57499C11.1134 2.61 11.18 2.66165 11.265 2.72501C11.3317 2.77832 11.4033 2.84334 11.49 2.91001C11.6617 3.04832 11.8667 3.22667 12.0917 3.43168C12.1517 3.48333 12.21 3.53667 12.2633 3.59001C12.5534 3.86001 12.8783 4.17666 13.1884 4.52667C13.275 4.62501 13.36 4.725 13.4467 4.82999C13.5333 4.93667 13.625 5.04165 13.705 5.14668C13.81 5.28667 13.9233 5.43166 14.0217 5.58334C14.0683 5.65501 14.1217 5.72833 14.1667 5.8C14.2933 5.99165 14.405 6.19001 14.5117 6.38835C14.5567 6.48 14.6033 6.57999 14.6433 6.67833C14.7617 6.94333 14.855 7.21333 14.915 7.48333C14.9333 7.54167 14.9467 7.605 14.9533 7.66168V7.67501C14.9733 7.75499 14.98 7.83999 14.9867 7.92665C15.0133 8.20333 15 8.47998 14.94 8.75832C14.915 8.87668 14.8817 8.98832 14.8417 9.10668C14.8017 9.22 14.7617 9.33833 14.71 9.45C14.61 9.68165 14.4917 9.91333 14.3517 10.13C14.3067 10.21 14.2533 10.295 14.2 10.375C14.1417 10.46 14.0817 10.54 14.0283 10.6183C13.955 10.7183 13.8767 10.8233 13.7967 10.9167C13.725 11.015 13.6517 11.1133 13.5717 11.2C13.46 11.3317 13.3533 11.4567 13.2417 11.5767C13.175 11.655 13.1033 11.735 13.03 11.8067C12.9584 11.8867 12.885 11.9583 12.8183 12.025C12.7067 12.1367 12.6133 12.2233 12.535 12.295L12.3517 12.4633C12.325 12.4867 12.29 12.5 12.2533 12.5H10.8333V14.3217H12.62C13.02 14.3217 13.4 14.18 13.7067 13.92C13.8117 13.8283 14.27 13.4317 14.8117 12.8333C14.83 12.8133 14.8534 12.7983 14.88 12.7917L19.815 11.365C19.9067 11.3383 20 11.4083 20 11.505Z" fill="#6A7080"/>
</svg>
