<svg width="16" height="12" viewBox="0 0 16 12" fill="none" xmlns="http://www.w3.org/2000/svg">
<path d="M9.25 10.9286C9.25 10.3368 8.69034 9.85714 8 9.85714L8 9.64286L9 9.64286C9.69034 9.64286 10.25 9.16318 10.25 8.57143C10.25 7.97968 9.69034 7.5 9 7.5L8 7.5L8 7.28571L14.5 7.28571C15.3284 7.28571 16 6.71009 16 6C16 5.28991 15.3284 4.71428 14.5 4.71428L8 4.71428L8 4.35075L13.5485 2.48271C14.3196 2.22305 14.6991 1.4768 14.3961 0.815914C14.0932 0.155003 13.2226 -0.170257 12.4515 0.0893775L6.50334 2.09201L5.72609 1.25924C5.34153 0.847253 4.66428 0.73652 4.12981 0.998324L0.629813 2.71261C0.438485 2.80632 0.27946 2.94172 0.168855 3.10508C0.0582493 3.26845 -2.05833e-06 3.45397 7.9444e-07 3.64285L5.13438e-07 10.0714C4.91705e-07 10.5686 0.399064 11.0005 0.963688 11.1144L5.21369 11.9715C5.30752 11.9905 5.4036 12 5.5 12L8 12C8.69034 12 9.25 11.5203 9.25 10.9286Z" fill="#6A7080"/>
</svg>
