<svg width="116" height="18" viewBox="0 0 116 18" fill="none" xmlns="http://www.w3.org/2000/svg">
<path d="M32.6189 10.1619H37.4813C38.165 10.1619 38.7191 10.7279 38.7191 11.4191C38.7191 12.1162 38.165 12.6763 37.4813 12.6763H31.6169C31.5226 12.6763 31.4342 12.712 31.3694 12.7716L29.6012 14.3148C29.3301 14.5531 29.4951 15 29.8487 15H37.1866C37.1866 15 37.1925 15 37.1925 14.994C37.1925 14.9881 37.1984 14.9881 37.1984 14.9881C37.2927 14.994 37.3811 15 37.4754 15C39.4204 15 41 13.3972 41 11.4191C41 9.5422 39.5796 7.99901 37.7642 7.85005C37.7642 7.85005 37.7583 7.85005 37.7583 7.84409C37.7583 7.83813 37.7583 7.83813 37.7525 7.83813H32.5187C31.835 7.83813 31.2809 7.27209 31.2809 6.58093C31.2809 5.88381 31.835 5.32373 32.5187 5.32373H38.3713C38.4656 5.32373 38.5599 5.28798 38.6306 5.22244L40.275 3.67924C40.5344 3.43495 40.3635 3 40.0157 3H32.6189C32.5894 3 32.554 3 32.5246 3C30.5796 3 29 4.60278 29 6.58093C29 8.55909 30.5796 10.1619 32.5246 10.1619C32.554 10.1619 32.5835 10.1619 32.6189 10.1619Z" fill="#D6DCEC"/>
<path d="M60.3907 3.00595C60.1743 3.00595 60 3.17848 60 3.39861V14.6073C60 14.8215 60.1743 15 60.3907 15H69.4681C69.5763 15 69.6785 14.9524 69.7566 14.8751L70.8928 13.6673C71.1273 13.4175 70.9529 13.0069 70.6042 13.0069H62.6811C62.4647 13.0069 62.2904 12.8344 62.2904 12.6143V3.39266C62.2904 3.17848 62.116 3 61.8996 3H60.3907V3.00595Z" fill="#D6DCEC"/>
<path fill-rule="evenodd" clip-rule="evenodd" d="M46.227 3C46.227 3.00596 46.227 3.00596 46.227 3C45.023 3.05365 44.0561 3.97765 44 5.12817V12.6811C44 12.7109 44 12.7466 44 12.7765C44 13.9747 44.9856 14.9523 46.227 15H54.773C56.0082 14.9463 57 13.9687 57 12.7765C57 12.7466 57 12.7109 57 12.6811V5.13413C56.9501 3.98361 55.9832 3.05365 54.7793 3.00596H46.227V3ZM47.8239 5.13413C47.8177 5.13413 47.8177 5.13413 47.8239 5.13413C47.0691 5.16393 46.464 5.74814 46.4328 6.47541V11.2265C46.4328 11.2444 46.4328 11.2683 46.4328 11.2861C46.4328 12.0373 47.0504 12.6572 47.8239 12.687H53.1823C53.9559 12.6572 54.5734 12.0373 54.5734 11.2861C54.5734 11.2683 54.5734 11.2444 54.5734 11.2265V6.47541C54.5422 5.74814 53.9371 5.1699 53.1823 5.13413H47.8239Z" fill="#D6DCEC"/>
<path fill-rule="evenodd" clip-rule="evenodd" d="M83.7438 14.601C83.7438 14.8154 83.9133 14.994 84.1237 14.994H85.6201C85.8305 14.994 86 14.8213 86 14.601V5.31663C86 5.28685 86 5.25112 86 5.22134C86 4.02432 85.0823 3.04764 83.9367 3H76.2504C76.2211 3 76.1861 3 76.1568 3C74.9644 3 74 3.99454 74 5.22729C74 5.25707 74 5.2928 74 5.32258V14.6069C74 14.8213 74.1695 15 74.3799 15H75.8763C76.0867 15 76.2562 14.8273 76.2562 14.6069V10.7419C76.2562 10.5275 76.4257 10.3489 76.6361 10.3489H83.3814C83.5918 10.3489 83.7613 10.5216 83.7613 10.7419V14.601H83.7438ZM76.2445 8.21092V6.28139C76.2445 5.53102 76.8349 4.92357 77.5597 4.92357H82.4345C83.1593 4.92357 83.7496 5.53102 83.7496 6.28139V8.21092C83.7496 8.42531 83.5801 8.60397 83.3697 8.60397H76.6244C76.414 8.60397 76.2445 8.43127 76.2445 8.21092Z" fill="#D6DCEC"/>
<path fill-rule="evenodd" clip-rule="evenodd" d="M114.12 15C113.912 15 113.745 14.8273 113.745 14.6069V10.7419C113.745 10.5275 113.577 10.3489 113.369 10.3489H106.62C106.412 10.3489 106.244 10.5216 106.244 10.7419V14.6069C106.244 14.8213 106.076 15 105.868 15H104.376C104.168 15 104 14.8273 104 14.6069V5.32258C104 5.2928 104 5.25707 104 5.2273C104 4.0005 104.966 3 106.157 3C106.186 3 106.221 3 106.25 3H113.935C115.08 3.0536 116 4.03027 116 5.22134C116 5.25112 116 5.28685 116 5.31663V14.601C116 14.8154 115.832 14.994 115.624 14.994H114.12V15ZM106.244 6.28734V8.21687C106.244 8.43127 106.412 8.60993 106.62 8.60993H113.369C113.577 8.60993 113.745 8.43722 113.745 8.21687V6.28734C113.745 5.53697 113.155 4.92953 112.432 4.92953H107.557C106.828 4.92953 106.244 5.53697 106.244 6.28734Z" fill="#D6DCEC"/>
<path d="M91.0953 3C91.2062 3 91.3113 3.0476 91.3813 3.13684L98.0817 11.2816C98.3093 11.5553 98.7471 11.3887 98.7471 11.0258V3.39266C98.7471 3.17848 98.9164 3 99.1265 3H100.621C100.831 3 101 3.17253 101 3.39266V14.6014C101 14.8156 100.831 14.9941 100.621 14.9941H98.7646C98.7588 14.9941 98.7529 14.9881 98.7529 14.9822C98.7529 14.9762 98.7529 14.9762 98.7471 14.9703L91.93 6.88498C91.7023 6.6113 91.2646 6.78384 91.2646 7.1408V14.6073C91.2646 14.8215 91.0953 15 90.8852 15H89.3794C89.1693 15 89 14.8275 89 14.6073V3.39266C89 3.17848 89.1693 3 89.3794 3H91.0953Z" fill="#D6DCEC"/>
<path d="M3.41376 14.1965C3.54252 14.0707 3.71555 14 3.89663 14H20.6565C20.9624 14 21.1153 14.3615 20.898 14.5697L17.5862 17.8035C17.4575 17.9293 17.2844 18 17.1034 18H0.343453C0.0376296 18 -0.115282 17.6385 0.102013 17.4303L3.41376 14.1965Z" fill="#8B47FB"/>
<path d="M3.41376 0.196657C3.54252 0.0707965 3.71555 0 3.89663 0H20.6565C20.9624 0 21.1153 0.361849 20.898 0.570305L17.5862 3.80334C17.4575 3.9292 17.2844 4 17.1034 4H0.343453C0.0376296 4 -0.115282 3.63815 0.102013 3.4297L3.41376 0.196657Z" fill="#44C6E2"/>
<path d="M17.5862 7.19666C17.4575 7.0708 17.2844 7 17.1034 7H0.343453C0.0376296 7 -0.115282 7.36185 0.102013 7.5703L3.41376 10.8033C3.54252 10.9292 3.71555 11 3.89663 11H20.6565C20.9624 11 21.1153 10.6382 20.898 10.4297L17.5862 7.19666Z" fill="#579AFF"/>
</svg>
