<svg width="22" height="20" viewBox="0 0 22 20" fill="none" xmlns="http://www.w3.org/2000/svg">
<path d="M2 3H21L18.1646 14H5L2 3ZM2 3L1 1M9.41586 8.5H13.4665M11.4412 6.44286V10.5571M9.86076 17.4571C9.86076 17.8663 9.70072 18.2588 9.41586 18.5481C9.13099 18.8374 8.74463 19 8.34177 19C7.93891 19 7.55255 18.8374 7.26769 18.5481C6.98282 18.2588 6.82278 17.8663 6.82278 17.4571M15.9367 17.4571C15.9367 17.8663 15.7767 18.2588 15.4918 18.5481C15.2069 18.8374 14.8206 19 14.4177 19C14.0149 19 13.6285 18.8374 13.3436 18.5481C13.0588 18.2588 12.8987 17.8663 12.8987 17.4571" stroke="#44C6E2" stroke-width="2" stroke-linecap="round" stroke-linejoin="round"/>
</svg>
