<svg width="14" height="12" viewBox="0 0 14 12" fill="none" xmlns="http://www.w3.org/2000/svg">
<path d="M8.5 2C8.5 1.17157 7.82843 0.5 7 0.5C6.17157 0.5 5.5 1.17157 5.5 2C5.5 2.82843 6.17157 3.5 7 3.5C7.82843 3.5 8.5 2.82843 8.5 2Z" fill="#D6DCEC" stroke="#D6DCEC" stroke-linecap="round" stroke-linejoin="round"/>
<path d="M3.5 10C3.5 9.17157 2.82843 8.5 2 8.5C1.17157 8.5 0.5 9.17157 0.5 10C0.5 10.8284 1.17157 11.5 2 11.5C2.82843 11.5 3.5 10.8284 3.5 10Z" fill="#D6DCEC" stroke="#D6DCEC" stroke-linecap="round" stroke-linejoin="round"/>
<path d="M13.5 10C13.5 9.17157 12.8284 8.5 12 8.5C11.1716 8.5 10.5 9.17157 10.5 10C10.5 10.8284 11.1716 11.5 12 11.5C12.8284 11.5 13.5 10.8284 13.5 10Z" fill="#D6DCEC" stroke="#D6DCEC" stroke-linecap="round" stroke-linejoin="round"/>
</svg>
