<svg width="24" height="20" viewBox="0 0 24 20" fill="none" xmlns="http://www.w3.org/2000/svg">
<g opacity="0.56">
<path d="M22.451 8.24251L22.4505 8.24175C21.6499 7.09364 20.274 5.31371 18.5134 3.81096C16.7684 2.32158 14.5228 1 12.0002 1C9.47753 1 7.2319 2.32158 5.48694 3.81096C3.72754 5.31265 2.35237 7.09113 1.55156 8.23931C1.18937 8.75286 1 9.37226 1 10C1 10.6278 1.18938 11.2472 1.55158 11.7607C2.35239 12.9089 3.72756 14.6874 5.48694 16.189C7.2319 17.6784 9.47753 19 12.0002 19C14.5228 19 16.7684 17.6784 18.5134 16.189C20.274 14.6863 21.6499 12.9064 22.4505 11.7583L22.4506 11.7581C23.1833 10.7068 23.1828 9.29413 22.451 8.24251Z" stroke="#6A7080" stroke-width="2"/>
<path d="M12 11C12.5523 11 13 10.5523 13 10C13 9.44772 12.5523 9 12 9C11.4477 9 11 9.44772 11 10C11 10.5523 11.4477 11 12 11Z" stroke="#6A7080" stroke-width="2"/>
</g>
</svg>
