<svg width="108" height="80" viewBox="0 0 108 80" fill="none" xmlns="http://www.w3.org/2000/svg">
<path d="M35.256 78.248C29.224 78.248 23.8507 76.7573 19.136 73.776C14.4213 70.7947 10.712 66.496 8.008 60.88C5.37333 55.1947 4.056 48.4347 4.056 40.6C4.056 32.7653 5.37333 26.04 8.008 20.424C10.712 14.7387 14.4213 10.4053 19.136 7.424C23.8507 4.44266 29.224 2.952 35.256 2.952C41.288 2.952 46.6613 4.44266 51.376 7.424C56.0907 10.4053 59.7653 14.7387 62.4 20.424C65.104 26.04 66.456 32.7653 66.456 40.6C66.456 48.4347 65.104 55.1947 62.4 60.88C59.7653 66.496 56.0907 70.7947 51.376 73.776C46.6613 76.7573 41.288 78.248 35.256 78.248ZM35.256 64C39.6933 64 43.16 62.0933 45.656 58.28C48.2213 54.4667 49.504 48.5733 49.504 40.6C49.504 32.6267 48.2213 26.7333 45.656 22.92C43.16 19.1067 39.6933 17.2 35.256 17.2C30.888 17.2 27.4213 19.1067 24.856 22.92C22.36 26.7333 21.112 32.6267 21.112 40.6C21.112 48.5733 22.36 54.4667 24.856 58.28C27.4213 62.0933 30.888 64 35.256 64ZM78.6659 64.2C76.4793 64.2 74.6926 63.5067 73.3059 62.12C71.9193 60.7333 71.2259 58.8267 71.2259 56.4C71.2259 54.7733 71.5459 53.3733 72.1859 52.2C72.8259 51.0267 73.7059 50.1333 74.8259 49.52C75.9726 48.9067 77.2526 48.6 78.6659 48.6C80.0793 48.6 81.3459 48.9067 82.4659 49.52C83.6126 50.1333 84.5059 51.0267 85.1459 52.2C85.7859 53.3733 86.1059 54.7733 86.1059 56.4C86.1059 58.8267 85.4126 60.7333 84.0259 62.12C82.6393 63.5067 80.8526 64.2 78.6659 64.2ZM95.1059 49H101.866L82.7459 77H75.9859L95.1059 49ZM78.6659 59.88C79.1726 59.88 79.5859 59.6133 79.9059 59.08C80.2526 58.52 80.4259 57.6267 80.4259 56.4C80.4259 55.1733 80.2526 54.2933 79.9059 53.76C79.5859 53.2 79.1726 52.92 78.6659 52.92C78.1593 52.92 77.7326 53.2 77.3859 53.76C77.0659 54.2933 76.9059 55.1733 76.9059 56.4C76.9059 57.6267 77.0659 58.52 77.3859 59.08C77.7326 59.6133 78.1593 59.88 78.6659 59.88ZM99.1859 77.4C96.9993 77.4 95.2126 76.7067 93.8259 75.32C92.4393 73.9333 91.7459 72.0267 91.7459 69.6C91.7459 67.9733 92.0659 66.5733 92.7059 65.4C93.3459 64.2267 94.2259 63.3333 95.3459 62.72C96.4926 62.1067 97.7726 61.8 99.1859 61.8C100.599 61.8 101.866 62.1067 102.986 62.72C104.133 63.3333 105.026 64.2267 105.666 65.4C106.306 66.5733 106.626 67.9733 106.626 69.6C106.626 72.0267 105.933 73.9333 104.546 75.32C103.159 76.7067 101.373 77.4 99.1859 77.4ZM99.1859 73.08C99.6926 73.08 100.106 72.8133 100.426 72.28C100.773 71.72 100.946 70.8267 100.946 69.6C100.946 68.3733 100.773 67.4933 100.426 66.96C100.106 66.4 99.6926 66.12 99.1859 66.12C98.6793 66.12 98.2526 66.4 97.9059 66.96C97.5859 67.4933 97.4259 68.3733 97.4259 69.6C97.4259 70.8267 97.5859 71.72 97.9059 72.28C98.2526 72.8133 98.6793 73.08 99.1859 73.08Z" fill="#B5EC5B"/>
<mask id="mask0_1_51" style="mask-type:alpha" maskUnits="userSpaceOnUse" x="4" y="2" width="103" height="77">
<path d="M35.256 78.248C29.2933 78.248 23.9547 76.792 19.24 73.88C14.5253 70.8987 10.816 66.6 8.112 60.984C5.408 55.368 4.056 48.5733 4.056 40.6C4.056 32.6267 5.408 25.832 8.112 20.216C10.816 14.6 14.5253 10.336 19.24 7.424C23.9547 4.44266 29.2933 2.952 35.256 2.952C41.288 2.952 46.6267 4.44266 51.272 7.424C55.9867 10.336 59.696 14.6 62.4 20.216C65.104 25.832 66.456 32.6267 66.456 40.6C66.456 48.5733 65.104 55.368 62.4 60.984C59.696 66.6 55.9867 70.8987 51.272 73.88C46.6267 76.792 41.288 78.248 35.256 78.248ZM35.256 64C38.0987 64 40.56 63.2027 42.64 61.608C44.7893 60.0133 46.4533 57.4827 47.632 54.016C48.88 50.5493 49.504 46.0773 49.504 40.6C49.504 35.1227 48.88 30.6507 47.632 27.184C46.4533 23.7173 44.7893 21.1867 42.64 19.592C40.56 17.9973 38.0987 17.2 35.256 17.2C32.4827 17.2 30.0213 17.9973 27.872 19.592C25.792 21.1867 24.128 23.7173 22.88 27.184C21.7013 30.6507 21.112 35.1227 21.112 40.6C21.112 46.0773 21.7013 50.5493 22.88 54.016C24.128 57.4827 25.792 60.0133 27.872 61.608C30.0213 63.2027 32.4827 64 35.256 64ZM75.9859 77L95.1059 49H101.866L82.7459 77H75.9859ZM78.6659 64.2C77.2526 64.2 75.9859 63.9067 74.8659 63.32C73.7459 62.7067 72.8526 61.8133 72.1859 60.64C71.5459 59.4667 71.2259 58.0533 71.2259 56.4C71.2259 54.7467 71.5459 53.3467 72.1859 52.2C72.8526 51.0267 73.7459 50.1333 74.8659 49.52C75.9859 48.9067 77.2526 48.6 78.6659 48.6C80.0793 48.6 81.3459 48.9067 82.4659 49.52C83.5859 50.1333 84.4659 51.0267 85.1059 52.2C85.7726 53.3467 86.1059 54.7467 86.1059 56.4C86.1059 58.0533 85.7726 59.4667 85.1059 60.64C84.4659 61.8133 83.5859 62.7067 82.4659 63.32C81.3459 63.9067 80.0793 64.2 78.6659 64.2ZM78.6659 59.88C79.1193 59.88 79.5193 59.64 79.8659 59.16C80.2393 58.6533 80.4259 57.7333 80.4259 56.4C80.4259 55.0667 80.2393 54.16 79.8659 53.68C79.5193 53.1733 79.1193 52.92 78.6659 52.92C78.2393 52.92 77.8393 53.1733 77.4659 53.68C77.0926 54.16 76.9059 55.0667 76.9059 56.4C76.9059 57.7333 77.0926 58.6533 77.4659 59.16C77.8393 59.64 78.2393 59.88 78.6659 59.88ZM99.1859 77.4C97.7726 77.4 96.5059 77.1067 95.3859 76.52C94.2659 75.9067 93.3726 75.0133 92.7059 73.84C92.0659 72.6667 91.7459 71.2533 91.7459 69.6C91.7459 67.9467 92.0659 66.5467 92.7059 65.4C93.3726 64.2267 94.2659 63.3333 95.3859 62.72C96.5059 62.1067 97.7726 61.8 99.1859 61.8C100.599 61.8 101.866 62.1067 102.986 62.72C104.106 63.3333 104.986 64.2267 105.626 65.4C106.293 66.5467 106.626 67.9467 106.626 69.6C106.626 71.2533 106.293 72.6667 105.626 73.84C104.986 75.0133 104.106 75.9067 102.986 76.52C101.866 77.1067 100.599 77.4 99.1859 77.4ZM99.1859 73.08C99.6393 73.08 100.039 72.84 100.386 72.36C100.759 71.8533 100.946 70.9333 100.946 69.6C100.946 68.2667 100.759 67.36 100.386 66.88C100.039 66.3733 99.6393 66.12 99.1859 66.12C98.7593 66.12 98.3593 66.3733 97.9859 66.88C97.6126 67.36 97.4259 68.2667 97.4259 69.6C97.4259 70.9333 97.6126 71.8533 97.9859 72.36C98.3593 72.84 98.7593 73.08 99.1859 73.08Z" fill="white"/>
</mask>
<g mask="url(#mask0_1_51)">
<path fill-rule="evenodd" clip-rule="evenodd" d="M120 73.6485L116.59 74.8865C113.077 76.1245 106.257 78.6004 99.3333 75.5055C92.41 72.4105 85.59 63.7447 78.6667 58.7928C71.7433 53.8408 64.9233 52.6029 58 53.8408C51.0767 55.0788 44.2567 58.7928 37.3333 59.4117C30.41 60.0307 23.59 57.5548 16.6667 55.0788C9.74333 52.6029 2.92332 50.1269 -0.590009 48.8889L-4 47.6509L-3.99999 16L120 16L120 73.6485Z" fill="#44C6E2"/>
<path fill-rule="evenodd" clip-rule="evenodd" d="M109.198 62.8136L104.514 61.8184C99.8292 60.8231 90.4604 58.8327 82.2766 53.4392C74.0928 48.0457 67.094 39.2493 57.7252 37.2588C48.3564 35.2683 36.6177 40.0838 27.0514 38.6605C17.4851 37.2372 10.0913 29.5751 6.39434 25.744L2.69742 21.9129L17.9885 -22L22.4754 -20.4376C26.9623 -18.8752 35.9361 -15.7504 44.9099 -12.6256C53.8837 -9.50075 62.8575 -6.37595 71.8313 -3.25114C80.8051 -0.126332 89.7789 2.99848 98.7527 6.12328C107.727 9.24809 116.7 12.3729 121.187 13.9353L125.674 15.4977L109.198 62.8136Z" fill="#5A88FF"/>
</g>
</svg>
