<svg width="21" height="18" viewBox="0 0 21 18" fill="none" xmlns="http://www.w3.org/2000/svg">
<path d="M3.41376 14.1965C3.54252 14.0707 3.71555 14 3.89663 14H20.6565C20.9624 14 21.1153 14.3615 20.898 14.5697L17.5862 17.8035C17.4575 17.9293 17.2844 18 17.1034 18H0.343453C0.0376296 18 -0.115282 17.6385 0.102013 17.4303L3.41376 14.1965Z" fill="#8B47FB"/>
<path d="M3.41376 0.196657C3.54252 0.0707965 3.71555 0 3.89663 0H20.6565C20.9624 0 21.1153 0.361849 20.898 0.570305L17.5862 3.80334C17.4575 3.9292 17.2844 4 17.1034 4H0.343453C0.0376296 4 -0.115282 3.63815 0.102013 3.4297L3.41376 0.196657Z" fill="#44C6E2"/>
<path d="M17.5862 7.19666C17.4575 7.0708 17.2844 7 17.1034 7H0.343453C0.0376296 7 -0.115282 7.36185 0.102013 7.5703L3.41376 10.8033C3.54252 10.9292 3.71555 11 3.89663 11H20.6565C20.9624 11 21.1153 10.6382 20.898 10.4297L17.5862 7.19666Z" fill="#579AFF"/>
</svg>
