<svg width="20" height="22" viewBox="0 0 20 22" fill="none" xmlns="http://www.w3.org/2000/svg">
<path d="M1 21V19.75C1 17.4294 1.94821 15.2038 3.63604 13.5628C5.32387 11.9219 7.61305 11 10 11V11C12.3869 11 14.6761 11.9219 16.364 13.5628C18.0518 15.2038 19 17.4294 19 19.75V21M10 11C11.364 11 12.6721 10.4732 13.6365 9.53553C14.601 8.59785 15.1429 7.32608 15.1429 6C15.1429 4.67392 14.601 3.40215 13.6365 2.46447C12.6721 1.52678 11.364 1 10 1C8.63603 1 7.32792 1.52678 6.36345 2.46447C5.39898 3.40215 4.85714 4.67392 4.85714 6C4.85714 7.32608 5.39898 8.59785 6.36345 9.53553C7.32792 10.4732 8.63603 11 10 11V11Z" stroke="#6A7080" stroke-width="2" stroke-linecap="round" stroke-linejoin="round"/>
</svg>
