<svg width="24" height="22" viewBox="0 0 24 22" fill="none" xmlns="http://www.w3.org/2000/svg">
<path d="M1 21V18C1 16.1435 1.7375 14.363 3.05025 13.0503C4.36301 11.7375 6.14348 11 8 11C9.85652 11 11.637 11.7375 12.9497 13.0503C14.2625 14.363 15 16.1435 15 18V21" stroke="#6A7080" stroke-width="2" stroke-linecap="round"/>
<path d="M13 13C13 11.6739 13.5268 10.4021 14.4645 9.46447C15.4021 8.52678 16.6739 8 18 8C18.6566 8 19.3068 8.12933 19.9134 8.3806C20.52 8.63188 21.0712 9.00017 21.5355 9.46447C21.9998 9.92876 22.3681 10.48 22.6194 11.0866C22.8707 11.6932 23 12.3434 23 13V14" stroke="#6A7080" stroke-width="2" stroke-linecap="round"/>
<path d="M8 10C9.06087 10 10.0783 9.57857 10.8284 8.82843C11.5786 8.07828 12 7.06087 12 6C12 4.93913 11.5786 3.92172 10.8284 3.17157C10.0783 2.42143 9.06087 2 8 2C6.93913 2 5.92172 2.42143 5.17157 3.17157C4.42143 3.92172 4 4.93913 4 6C4 7.06087 4.42143 8.07828 5.17157 8.82843C5.92172 9.57857 6.93913 10 8 10V10ZM18 7C18.7956 7 19.5587 6.68393 20.1213 6.12132C20.6839 5.55871 21 4.79565 21 4C21 3.20435 20.6839 2.44129 20.1213 1.87868C19.5587 1.31607 18.7956 1 18 1C17.2044 1 16.4413 1.31607 15.8787 1.87868C15.3161 2.44129 15 3.20435 15 4C15 4.79565 15.3161 5.55871 15.8787 6.12132C16.4413 6.68393 17.2044 7 18 7Z" stroke="#6A7080" stroke-width="2" stroke-linecap="round" stroke-linejoin="round"/>
</svg>
