<svg width="22" height="22" viewBox="0 0 22 22" fill="none" xmlns="http://www.w3.org/2000/svg">
<path d="M10.4657 1.34069C10.5131 1.23891 10.5885 1.15278 10.6832 1.09242C10.7778 1.03206 10.8877 1 11 1C11.1123 1 11.2222 1.03206 11.3168 1.09242C11.4115 1.15278 11.4869 1.23891 11.5343 1.34069L14.3471 7.36806C14.4057 7.49351 14.5065 7.59434 14.6319 7.65288L20.6593 10.4657C20.7611 10.5131 20.8472 10.5885 20.9076 10.6832C20.9679 10.7778 21 10.8877 21 11C21 11.1123 20.9679 11.2222 20.9076 11.3168C20.8472 11.4115 20.7611 11.4869 20.6593 11.5343L14.6319 14.3471C14.5065 14.4057 14.4057 14.5065 14.3471 14.6319L11.5343 20.6593C11.4869 20.7611 11.4115 20.8472 11.3168 20.9076C11.2222 20.9679 11.1123 21 11 21C10.8877 21 10.7778 20.9679 10.6832 20.9076C10.5885 20.8472 10.5131 20.7611 10.4657 20.6593L7.65288 14.6319C7.59434 14.5065 7.49351 14.4057 7.36806 14.3471L1.34069 11.5343C1.23891 11.4869 1.15278 11.4115 1.09242 11.3168C1.03206 11.2222 1 11.1123 1 11C1 10.8877 1.03206 10.7778 1.09242 10.6832C1.15278 10.5885 1.23891 10.5131 1.34069 10.4657L7.36806 7.65288C7.49351 7.59434 7.59434 7.49351 7.65288 7.36806L10.4657 1.34069Z" stroke="#579AFF" stroke-width="2" stroke-linecap="round" stroke-linejoin="round"/>
</svg>
